<svg id="Layer_1" enable-background="new 0 0 512 512" height="512" viewBox="0 0 512 512" width="512" xmlns="http://www.w3.org/2000/svg"><g><path d="m10 311h492v-240c0-22.09-17.91-40-40-40h-412c-22.09 0-40 17.91-40 40z" fill="#cecdf3"/><path d="m502 311v30c0 22.09-17.91 40-40 40h-412c-22.09 0-40-17.91-40-40v-30z" fill="#fff"/><path d="m326 436h-25v-55h-90v55h-25c-22.091 0-40 17.909-40 40v5h220v-5c0-22.091-17.909-40-40-40z" fill="#fff"/><g><path d="m508.069 51.54c-2.52-5.96-6.13-11.3-10.72-15.89s-9.93-8.2-15.89-10.72c-6.159-2.61-12.709-3.93-19.459-3.93h-161.141c-5.52 0-10 4.49-10 10s4.48 10 10 10h161.141c16.51.03 29.97 13.49 30 30v230h-382v-260h100.85c5.521 0 10-4.49 10-10s-4.479-10-10-10h-160.85c-6.75 0-13.3 1.32-19.46 3.93-5.96 2.52-11.3 6.13-15.891 10.72-4.6 4.59-8.199 9.93-10.72 15.89-2.61 6.16-3.929 12.71-3.929 19.46v240 30c0 27.57 22.43 50 50 50h151v35h-15c-27.57 0-50 22.43-50 50v5c0 5.523 4.478 10 10 10h220c5.522 0 10-4.477 10-10v-5c0-27.57-22.43-50-50-50h-15v-35h151c27.57 0 50-22.43 50-50v-30-240c0-6.75-1.32-13.3-3.931-19.46zm-488.069 249.46v-174h70v174zm30-260h40v66h-70v-36c.03-16.51 13.49-29.97 30-30zm251 405h25c14.839 0 27.196 10.83 29.583 25h-199.166c2.387-14.17 14.744-25 29.583-25h25c5.522 0 10-4.477 10-10v-45h70v45c0 5.523 4.478 10 10 10zm191-105c0 16.542-13.458 30-30 30h-412c-16.542 0-30-13.458-30-30v-20h472z"/><path d="m255.859 41c5.511 0 9.99-4.49 9.99-10s-4.479-10-9.99-10c-5.52 0-10.01 4.49-10.01 10 .001 5.51 4.491 10 10.01 10z"/><path d="m358.841 217.076 9.867-54.596 16.239 54.968c.035.119.072.238.112.355 1.651 4.91 6.23 8.197 11.406 8.197h.064c5.202-.027 9.777-3.369 11.384-8.315.037-.114.072-.229.105-.345l15.679-54.926 10.479 54.763c1.038 5.425 6.273 8.981 11.702 7.942 5.424-1.038 8.979-6.277 7.942-11.701 0 0-16.794-87.75-16.802-87.791-1.092-5.35-5.662-9.3-11.114-9.608-5.454-.303-10.438 3.104-12.125 8.297-.037.114-17.445 61.091-17.445 61.091s-18.049-61.085-18.089-61.202c-1.739-5.178-6.765-8.537-12.214-8.173-5.45.366-9.979 4.367-11.013 9.73-.008.038-15.861 87.757-15.861 87.757-.982 5.435 2.628 10.637 8.063 11.619 5.432.986 10.637-2.627 11.621-8.062z"/><path d="m144 171c0 30.327 23.751 55 52.945 55 11.733 0 22.243-4.02 30.393-11.625 1.582-1.476 3.085-3.101 4.469-4.83 3.451-4.312 2.754-10.605-1.558-14.056-4.313-3.451-10.605-2.752-14.056 1.558-.782.977-1.624 1.888-2.501 2.707-4.441 4.145-10.076 6.246-16.747 6.246-18.166 0-32.945-15.701-32.945-35s14.779-35 32.945-35c6.524 0 12.829 2.022 18.233 5.847 4.507 3.19 10.748 2.123 13.939-2.384 3.19-4.508 2.123-10.749-2.385-13.94-8.801-6.23-19.102-9.523-29.788-9.523-29.193 0-52.944 24.673-52.944 55z"/><path d="m319 149c0-17.888-15.341-33-33.5-33h-21.5c-5.522 0-10 4.477-10 10v90c0 5.523 4.478 10 10 10s10-4.477 10-10v-20.857l27.929 27.929c1.953 1.952 4.511 2.928 7.071 2.928s5.118-.976 7.071-2.929c3.905-3.905 3.905-10.237 0-14.143l-28.03-28.03c17.288-1.245 30.959-15.07 30.959-31.898zm-33.5 12h-11.5v-25h11.5c6.939 0 13.5 6.318 13.5 13 0 6.505-6.183 12-13.5 12z"/><circle cx="55" cy="257" r="10"/><circle cx="55" cy="212" r="10"/><circle cx="55" cy="167" r="10"/></g></g></svg>