<svg id="FilledOutline" height="512" viewBox="0 0 512 512" width="512" xmlns="http://www.w3.org/2000/svg"><path d="m24 56h416v416h-416z" fill="#f6bc1b"/><path d="m96 56h64v72h-64z" fill="#f9da62"/><path d="m232 72h-8a32 32 0 0 0 -32 32v55a64 64 0 0 1 -64 64h-56a32 32 0 0 0 -32 32v9h192z" fill="#f5a922"/><path d="m96 264h64v72h-64z" fill="#f9da62"/><path d="m232 280h-8a32 32 0 0 0 -32 32v55a64 64 0 0 1 -64 64h-56a32 32 0 0 0 -32 32v9h192z" fill="#f5a922"/><path d="m304 56h64v72h-64z" fill="#f9da62"/><path d="m440 72h-8a32 32 0 0 0 -32 32v55a64 64 0 0 1 -64 64h-56a32 32 0 0 0 -32 32v9h192z" fill="#f5a922"/><path d="m304 264h64v72h-64z" fill="#f9da62"/><path d="m440 280h-8a32 32 0 0 0 -32 32v55a64 64 0 0 1 -64 64h-56a32 32 0 0 0 -32 32v9h192z" fill="#f5a922"/><rect fill="#0093b9" height="320" rx="24" width="192" x="296" y="168"/><rect fill="#2da4c4" height="288" rx="8" width="160" x="312" y="184"/><path d="m240 64h56v64a8 8 0 0 0 8 8h64a8 8 0 0 0 8-8v-64h56v80h16v-88a8 8 0 0 0 -8-8h-416a8 8 0 0 0 -8 8v416a8 8 0 0 0 8 8h248v-16h-32v-192h32v-16h-32zm120 56h-48v-56h48zm-256-56h48v56h-48zm-16 0v64a8 8 0 0 0 8 8h64a8 8 0 0 0 8-8v-64h56v192h-192v-192zm16 208h48v56h-48zm120 192h-192v-192h56v64a8 8 0 0 0 8 8h64a8 8 0 0 0 8-8v-64h56z"/><path d="m192 224h16v16h-16z"/><path d="m160 224h16v16h-16z"/><path d="m192 432h16v16h-16z"/><path d="m160 432h16v16h-16z"/><path d="m88 16h240v16h-240z"/><path d="m344 16h16v16h-16z"/><path d="m464 160h-144a32.036 32.036 0 0 0 -32 32v272a32.036 32.036 0 0 0 32 32h144a32.036 32.036 0 0 0 32-32v-272a32.036 32.036 0 0 0 -32-32zm16 304a16.019 16.019 0 0 1 -16 16h-144a16.019 16.019 0 0 1 -16-16v-272a16.019 16.019 0 0 1 16-16h144a16.019 16.019 0 0 1 16 16z"/><path d="m368 192h16v16h-16z"/><path d="m400 192h16v16h-16z"/><path d="m384 448h16v16h-16z"/><path d="m392 300.687-14.469-14.47-11.314 11.314 20.126 20.126a8 8 0 0 0 11.314 0l64-64-11.314-11.314z"/><path d="m392 352a56.063 56.063 0 0 0 56-56h-16a39.98 39.98 0 1 1 -20.006-34.653l8.012-13.85a56 56 0 1 0 -28.006 104.503z"/><path d="m328 376h16v16h-16z"/><path d="m360 376h96v16h-96z"/><path d="m328 408h128v16h-128z"/></svg>