<svg id="Icons" enable-background="new 0 0 512 512" height="512" viewBox="0 0 512 512" width="512" xmlns="http://www.w3.org/2000/svg"><g><circle cx="256" cy="256" fill="#ea792e" r="256"/><g><g><g><path d="m426.515 214.61-4.71 21.88-120.5-86.04 44.55-48.2 21.91-23.7c9.06-9.8 23.56-12.34 35.41-6.21 4.07 2.1 7.55 5.09 10.21 8.68s4.5 7.78 5.34 12.28l8.63 46.74.24 1.32c4.48 24.25 4.12 49.15-1.08 73.25z" fill="#dd5e26"/><path d="m427.355 140.04c-7.83 4.08-16.73 6.39-26.17 6.39-27.01 0-49.63-18.89-55.33-44.18l21.91-23.7c9.06-9.8 23.56-12.34 35.41-6.21 4.07 2.1 7.55 5.09 10.21 8.68s4.5 7.78 5.34 12.28z" fill="#334353"/><path d="m345.49 168.714 28.108-69.931c3.051-7.592 10.903-12.107 19-10.927 8.569 1.25 14.98 8.51 15.16 17.168l1.975 95.073c.242 11.635-12.888 18.567-22.36 11.805l-36.978-26.402c-5.312-3.794-7.339-10.73-4.905-16.786z" fill="#ea792e"/></g><g><path d="m85.485 214.61 4.71 21.88 120.5-86.04-44.55-48.2-21.91-23.7c-9.06-9.8-23.56-12.34-35.41-6.21-4.07 2.1-7.55 5.09-10.21 8.68s-4.5 7.78-5.34 12.28l-8.63 46.74-.24 1.32c-4.48 24.25-4.12 49.15 1.08 73.25z" fill="#c44a1a"/><path d="m84.645 140.04c7.83 4.08 16.73 6.39 26.17 6.39 27.01 0 49.63-18.89 55.33-44.18l-21.91-23.7c-9.06-9.8-23.56-12.34-35.41-6.21-4.07 2.1-7.55 5.09-10.21 8.68s-4.5 7.78-5.34 12.28z" fill="#2e3140"/><path d="m166.51 168.714-28.108-69.931c-3.051-7.592-10.903-12.107-19-10.927-8.569 1.25-14.98 8.51-15.16 17.168l-1.975 95.073c-.242 11.635 12.888 18.567 22.36 11.805l36.978-26.401c5.312-3.795 7.339-10.731 4.905-16.787z" fill="#dd5e26"/></g></g><g><path d="m428.665 277.8v36.65c0 29.48-9.45 56.74-25.49 78.94-16.61 22.99-40.29 40.54-67.85 49.45-13.1 4.25-27.08 6.54-41.59 6.54h-75.46c-45.04 0-84.93-22.07-109.44-55.99-16.04-22.2-25.49-49.46-25.49-78.94v-36.65c0-70.34 57.02-127.35 127.36-127.35h90.6c70.34 0 127.36 57.01 127.36 127.35z" fill="#9175a7"/><path d="m428.665 277.8v36.65c0 29.48-9.45 56.74-25.49 78.94-16.61 22.99-40.29 40.54-67.85 49.45h-79.32v-292.39h45.3c70.34 0 127.36 57.01 127.36 127.35z" fill="#aea7b9"/><g><path d="m403.175 393.39c-24.51 33.92-64.4 55.99-109.44 55.99h-75.46c-45.04 0-84.93-22.07-109.44-55.99 2.23-45.34 39.7-81.41 85.58-81.41h123.18c45.88 0 83.35 36.07 85.58 81.41z" fill="#aea7b9"/><path d="m403.175 393.39c-24.51 33.92-64.4 55.99-109.44 55.99h-37.73v-137.4h61.59c45.88 0 83.35 36.07 85.58 81.41z" fill="#decee5"/></g><g><path d="m268.998 231.772c-7.178 0-12.998-5.819-12.998-12.998v-45.524c0-7.178 5.819-12.998 12.998-12.998 7.178 0 12.998 5.819 12.998 12.998v45.524c-.001 7.179-5.82 12.998-12.998 12.998z" fill="#decee5"/><path d="m243.002 231.772c-7.178 0-12.998-5.819-12.998-12.998v-45.524c0-7.178 5.819-12.998 12.998-12.998 7.178 0 12.998 5.819 12.998 12.998v45.524c0 7.179-5.819 12.998-12.998 12.998z" fill="#aea7b9"/></g></g><g><g><path d="m308.268 201.101h-10.319c-8.591 0-15.556 6.965-15.556 15.556v13.833c0 8.591 6.965 15.556 15.556 15.556h10.319c8.591 0 15.556-6.965 15.556-15.556v-13.833c0-8.591-6.964-15.556-15.556-15.556z" fill="#dd5e26"/><path d="m214.061 201.101h-10.319c-8.591 0-15.556 6.965-15.556 15.556v13.833c0 8.591 6.965 15.556 15.556 15.556h10.319c8.591 0 15.556-6.965 15.556-15.556v-13.833c0-8.591-6.965-15.556-15.556-15.556z" fill="#c44a1a"/></g><g><g><path d="m341.284 269.05c-1.046-11.959-15.485-20.465-27.444-19.418-11.959 1.046-20.805 11.589-19.759 23.548s10.922 13.182 22.881 12.136 25.368-4.307 24.322-16.266z" fill="#decee5"/><path d="m327.286 263.497.604 6.902c.274 3.136-.748 6.08-2.616 8.307-.993 1.184-2.222 2.162-3.632 2.859-1.243.622-2.626 1.031-4.094 1.159-6.263.548-11.786-4.078-12.334-10.341l-.604-6.902c-.547-6.254 4.088-11.778 10.351-12.326 1.469-.128 2.902.033 4.233.43 4.352 1.291 7.673 5.126 8.092 9.912z" fill="#334353"/><path d="m327.286 263.497.604 6.902c.274 3.136-.748 6.08-2.616 8.307-.993 1.184-2.222 2.162-3.632 2.859-4.352-1.29-7.672-5.117-8.092-9.912l-.604-6.902c-.419-4.786 2.186-9.14 6.248-11.166 4.352 1.291 7.673 5.126 8.092 9.912z" fill="#2e3140"/><path d="m331.883 263.611c-.284-3.246-3.146-5.648-6.392-5.364-7.768.983-6.789 12.138 1.029 11.756 3.246-.284 5.647-3.146 5.363-6.392z" fill="#fff"/></g><g><path d="m170.726 269.05c1.046-11.959 15.485-20.465 27.444-19.418 11.959 1.046 20.805 11.589 19.759 23.548s-10.922 13.182-22.881 12.136c-11.958-1.046-25.368-4.307-24.322-16.266z" fill="#decee5"/><path d="m184.725 263.497-.604 6.902c-.274 3.136.748 6.08 2.616 8.307.993 1.184 2.222 2.162 3.632 2.859 1.243.622 2.626 1.031 4.094 1.159 6.263.548 11.786-4.078 12.334-10.341l.604-6.902c.547-6.254-4.088-11.778-10.351-12.326-1.469-.128-2.902.033-4.233.43-4.352 1.291-7.673 5.126-8.092 9.912z" fill="#334353"/><path d="m207.403 265.481-.604 6.902c-.274 3.136-1.792 5.858-4.019 7.726-1.184.993-2.564 1.743-4.073 2.185-4.062-2.027-6.667-6.372-6.248-11.166l.604-6.902c.419-4.786 3.74-8.621 8.092-9.912 4.062 2.028 6.667 6.382 6.248 11.167z" fill="#2e3140"/><path d="m211.911 266.391c.284-3.246-2.117-6.108-5.364-6.392-7.82-.381-8.794 10.775-1.028 11.756 3.246.284 6.108-2.117 6.392-5.364z" fill="#fff"/></g></g></g><g><path d="m312.285 449.87c-9.24 14.94-25.78 25.07-44.94 25.07h-22.68c-31.88 0-56.49-28.03-52.37-59.64l11.73-72.1 7.96-48.93c1.45-11.12 10.93-19.43 22.14-19.43h43.76c11.21 0 20.69 8.31 22.14 19.43l7.76 47.69.2 1.24 11.73 72.1c1.64 12.61-1.29 24.65-7.43 34.57z" fill="#decee5"/><path d="m312.285 449.87c-9.24 14.94-25.78 25.07-44.94 25.07h-11.34v-132.98h51.78l.2 1.24 11.73 72.1c1.64 12.61-1.29 24.65-7.43 34.57z" fill="#f9f2f9"/><g><path d="m307.985 343.2c-9.55 13.51-25.3 22.32-43.1 22.32h-17.76c-17.8 0-33.55-8.81-43.1-22.32l7.96-48.93c1.45-11.12 10.93-19.43 22.14-19.43h43.76c11.21 0 20.69 8.31 22.14 19.43z" fill="#dd5e26"/><path d="m307.985 343.2c-9.55 13.51-25.3 22.32-43.1 22.32h-8.88v-90.68h21.88c11.21 0 20.69 8.31 22.14 19.43z" fill="#ea792e"/></g><g><path d="m271.156 365.517h-30.302c-13.637 0-23.844 12.511-21.105 25.87l3.506 17.102c2.055 10.022 10.874 17.217 21.105 17.217h23.291c10.231 0 19.051-7.195 21.105-17.217l3.506-17.102c2.738-13.359-7.468-25.87-21.106-25.87z" fill="#2e3140"/><path d="m272.003 371.585h-31.995c-9.1 0-16.477 7.377-16.477 16.477v1.95c0 9.1 7.377 16.477 16.477 16.477h31.995c9.1 0 16.477-7.377 16.477-16.477v-1.95c-.001-9.101-7.377-16.477-16.477-16.477z" fill="#334353"/><path d="m277.056 379.552h-42.102c-3.632 0-6.576 2.944-6.576 6.576 0 3.632 2.944 6.576 6.576 6.576h42.102c3.632 0 6.576-2.944 6.576-6.576 0-3.632-2.944-6.576-6.576-6.576z" fill="#3f5d77"/><path d="m268.274 379.552h-11.028c-3.632 0-6.576 2.944-6.576 6.576 0 3.632 2.944 6.576 6.576 6.576h11.028c3.632 0 6.576-2.944 6.576-6.576-.001-3.632-2.945-6.576-6.576-6.576z" fill="#fff"/><g fill="#151516"><path d="m264.73 400.408-2.685 2.685c-2.509 2.509-2.509 6.578 0 9.087l5.739 5.739c2.509 2.509 6.578 2.509 9.087 0l2.685-2.685c2.509-2.509 2.509-6.578 0-9.087l-5.739-5.739c-2.51-2.51-6.578-2.51-9.087 0z"/><path d="m249.962 403.093-2.685-2.685c-2.509-2.509-6.578-2.509-9.087 0l-5.739 5.739c-2.509 2.509-2.509 6.578 0 9.087l2.685 2.685c2.509 2.509 6.578 2.509 9.087 0l5.739-5.739c2.51-2.509 2.51-6.578 0-9.087z"/></g></g><path d="m288.479 458.216c-4.782 0-10.855-2.066-17.285-4.253-5.466-1.859-11.635-3.958-15.06-3.878-2.699.069-7.708 2.026-12.127 3.752-5.765 2.252-11.21 4.379-15.629 4.379-7.836 0-30.375-9.927-34.813-11.917-2.52-1.13-3.646-4.088-2.517-6.608 1.13-2.52 4.089-3.647 6.608-2.517 12.109 5.427 26.911 11.042 30.723 11.042 2.535 0 7.558-1.962 11.99-3.693 5.687-2.222 11.058-4.32 15.507-4.435 5.188-.142 11.671 2.072 18.539 4.408 5.126 1.744 10.938 3.72 14.065 3.72 2.911-.047 15.585-5.679 25.595-10.91 2.448-1.278 5.469-.332 6.747 2.115 1.279 2.447.333 5.468-2.115 6.747-5.407 2.826-23.565 12.048-30.228 12.048z" fill="#334353"/><g><g><path d="m295.324 431.734c-1.928 0-3.494-1.56-3.5-3.489-.006-1.933 1.556-3.505 3.489-3.511l33.717-.104h.011c1.928 0 3.494 1.56 3.5 3.489.006 1.933-1.556 3.505-3.489 3.511l-33.717.104c-.004 0-.007 0-.011 0z" fill="#fff"/><path d="m218.686 431.734c1.928 0 3.494-1.56 3.5-3.489.006-1.933-1.556-3.505-3.489-3.511l-33.717-.104c-.003 0-.007 0-.011 0-1.928 0-3.494 1.56-3.5 3.489-.006 1.933 1.556 3.505 3.489 3.511l33.717.104z" fill="#f4e6f4"/></g><g><path d="m310.197 413.316c-1.899.335-3.712-.93-4.053-2.828-.341-1.903.924-3.722 2.827-4.063l33.187-5.957c.003-.001.007-.001.011-.002 1.899-.335 3.712.93 4.053 2.828.341 1.903-.924 3.722-2.827 4.063l-33.187 5.957c-.004.001-.008.001-.011.002z" fill="#fff"/><path d="m203.813 413.316c1.899.335 3.712-.93 4.053-2.828.341-1.903-.924-3.722-2.827-4.063l-33.187-5.957c-.003-.001-.007-.001-.011-.002-1.899-.335-3.712.93-4.053 2.828-.341 1.903.924 3.722 2.827 4.063l33.187 5.957c.004.001.008.001.011.002z" fill="#f4e6f4"/></g></g></g></g></g></svg>