<svg id="Icons" enable-background="new 0 0 512 512" height="512" viewBox="0 0 512 512" width="512" xmlns="http://www.w3.org/2000/svg"><g><circle cx="256" cy="256" fill="#ea792e" r="256"/><g><g><g><path d="m422.853 316.627-29.463 84.563c-12.824 36.777-47.513 61.43-86.466 61.43h-101.848c-38.953 0-73.642-24.653-86.466-61.43l-29.463-84.563c-9.293-26.654-5.772-56.095 9.544-79.808l41.033-79.032c6.232-9.643 10.594-20.368 12.857-31.617l3.652-18.181c4.296-21.384 15.841-39.751 31.759-52.794 15.918-13.031 46.208-20.716 68.008-20.716 43.61 0 91.164 30.753 99.768 73.511l3.652 18.181c2.263 11.25 6.625 21.974 12.857 31.617l41.033 79.032c15.316 23.712 18.836 53.154 9.543 79.807z" fill="#2d2c33"/><path d="m422.853 316.627-29.463 84.563c-12.824 36.777-47.513 61.43-86.466 61.43h-50.924v-428.141c43.61 0 91.164 30.753 99.768 73.511l3.652 18.181c2.263 11.25 6.625 21.974 12.857 31.617l41.033 79.032c15.316 23.712 18.836 53.154 9.543 79.807z" fill="#2e3140"/></g><g><path d="m325 405.211 2.634-28.368c1.888-20.333 14.749-38.003 33.517-46.049l5.196-2.228c12.319-5.282 25.113 6.433 20.933 19.169l-15.789 48.113c-4.085 12.449-14.046 22.084-26.624 25.754-10.549 3.077-20.883-5.448-19.867-16.391z" fill="#334353"/><path d="m187 405.211-2.634-28.368c-1.888-20.333-14.749-38.003-33.517-46.049l-5.196-2.228c-12.319-5.282-25.113 6.433-20.933 19.169l15.789 48.113c4.085 12.449 14.046 22.084 26.624 25.754 10.549 3.077 20.883-5.448 19.867-16.391z" fill="#2e3140"/></g><g><path d="m256 61.797s26.942 1.798 35.578 4.169c21.541 5.913 35.306 27.299 40.183 49.099l5.678 25.376c3.129 13.986-7.51 27.269-21.842 27.269h-59.597z" fill="#334353"/><path d="m256 61.797s-26.942 1.798-35.578 4.169c-21.541 5.913-35.306 27.299-40.183 49.099l-5.678 25.376c-3.129 13.986 7.51 27.269 21.842 27.269h59.597z" fill="#2e3140"/></g></g><g><g><path d="m366.037 268.706c0 21.652-10.949 40.748-27.603 52.058-18.994 12.899-30.752 34.031-30.752 56.983v19.399c0 14.271-5.778 27.199-15.138 36.559-9.36 9.345-22.273 15.138-36.544 15.138-28.542 0-51.682-23.154-51.682-51.697v-19.399c0-22.952-11.758-44.084-30.752-56.983-8.334-5.648-15.224-13.26-20.049-22.143-4.81-8.898-7.554-19.095-7.554-29.914 0-34.753 28.167-62.934 62.92-62.934h94.235c17.377 0 33.107 7.049 44.489 18.431 11.381 11.396 18.43 27.126 18.43 44.502z" fill="#334353"/><path d="m366.04 268.71c0 21.65-10.95 40.74-27.61 52.05-18.99 12.9-30.75 34.03-30.75 56.99v19.4c0 14.27-5.78 27.19-15.14 36.55-9.36 9.35-22.27 15.14-36.54 15.14v-243.07h47.12c17.37 0 33.1 7.05 44.49 18.43 11.38 11.4 18.43 27.13 18.43 44.51z" fill="#3e4e60"/></g><g><g><path d="m256 373.12c12.611.707 24.338 6.7 32.299 16.506l17.464 21.512-49.763 12.587z" fill="#3f5d77"/><path d="m256 373.12c-12.611.707-24.338 6.7-32.299 16.506l-17.464 21.512 49.763 12.587z" fill="#3e4e60"/></g><g><path d="m256 427.236c-10.571 0-20.567-3.727-29.387-7.014-6.293-2.346-12.238-4.562-17.361-5.06-2.749-.267-4.76-2.711-4.493-5.46s2.715-4.757 5.46-4.493c6.425.624 12.964 3.062 19.888 5.643 8.419 3.139 17.126 6.384 25.894 6.384 8.771 0 17.48-3.246 25.903-6.385 6.924-2.581 13.463-5.018 19.888-5.643 2.753-.275 5.193 1.745 5.46 4.493.267 2.749-1.744 5.193-4.493 5.46-5.124.498-11.069 2.714-17.363 5.06-8.823 3.288-18.822 7.015-29.396 7.015z" fill="#2d2c33"/></g></g><g><g><path d="m320.092 246.763h-35.917c-6.715 0-12.158-5.443-12.158-12.158 0-6.715 5.443-12.158 12.158-12.158h35.917c6.715 0 12.158 5.443 12.158 12.158 0 6.714-5.443 12.158-12.158 12.158z" fill="#3f5d77"/><g><path d="m227.825 246.763h-35.917c-6.715 0-12.158-5.443-12.158-12.158 0-6.715 5.443-12.158 12.158-12.158h35.917c6.715 0 12.158 5.443 12.158 12.158 0 6.714-5.444 12.158-12.158 12.158z" fill="#3e4e60"/></g></g><g><g><path d="m256 302.315h-73.532c-7.736 0-14.008-6.271-14.008-14.008v-10.464c0-17.165 13.915-31.08 31.08-31.08h11.848 44.612z" fill="#2e3140"/><path d="m256 302.315h73.532c7.736 0 14.008-6.271 14.008-14.008v-10.464c0-17.165-13.915-31.08-31.08-31.08h-11.848-44.612z" fill="#334353"/></g><g><g><path d="m299.637 259.355-12.824 3.717c-8.16 2.365-12.858 10.897-10.493 19.057 2.365 8.16 10.897 12.858 19.057 10.493l12.824-3.717c8.16-2.365 12.858-10.897 10.493-19.057-2.365-8.16-10.897-12.858-19.057-10.493z" fill="#ea792e"/><path d="m311.204 275.99c0 3.14-1.06 6.05-2.85 8.36-2.5 3.24-6.43 5.34-10.85 5.34-7.56 0-13.7-6.14-13.7-13.7 0-6.19 4.11-11.42 9.75-13.12 1.25-.38 2.58-.58 3.95-.58 7.57 0 13.7 6.13 13.7 13.7z" fill="#3e4e60"/><path d="m311.204 275.99c0 3.14-1.06 6.05-2.85 8.36-1.26.39-2.59.59-3.97.59-7.56 0-13.69-6.14-13.69-13.7 0-3.15 1.06-6.05 2.86-8.37 1.25-.38 2.58-.58 3.95-.58 7.57 0 13.7 6.13 13.7 13.7z" fill="#2e3140"/><circle cx="307.5" cy="269.439" fill="#fff" r="6.55"/></g><g><path d="m212.363 259.355 12.824 3.717c8.16 2.365 12.858 10.897 10.493 19.057-2.365 8.16-10.897 12.858-19.057 10.493l-12.824-3.717c-8.16-2.365-12.858-10.897-10.493-19.057 2.365-8.16 10.897-12.858 19.057-10.493z" fill="#ea792e"/><path d="m200.796 275.99c0 3.14 1.06 6.05 2.85 8.36 2.5 3.24 6.43 5.34 10.85 5.34 7.56 0 13.7-6.14 13.7-13.7 0-6.19-4.11-11.42-9.75-13.12-1.25-.38-2.58-.58-3.95-.58-7.57 0-13.7 6.13-13.7 13.7z" fill="#3e4e60"/><path d="m200.796 275.99c0 3.14 1.06 6.05 2.85 8.36 1.26.39 2.59.59 3.97.59 7.56 0 13.69-6.14 13.69-13.7 0-3.15-1.06-6.05-2.86-8.37-1.25-.38-2.58-.58-3.95-.58-7.57 0-13.7 6.13-13.7 13.7z" fill="#2e3140"/><circle cx="219.291" cy="269.322" fill="#fff" r="6.55"/></g></g></g></g><g><g><path d="m256 356.53v16.59c-.31.39-.64.76-.99 1.11-5.2 5.2-13.62 5.2-18.81 0l-4.24-4.24-9.98-9.97c-5.19-5.2-5.19-13.62 0-18.81 2.6-2.6 6-3.9 9.41-3.9s6.81 1.3 9.41 3.9l14.21 14.21c.35.36.68.73.99 1.11z" fill="#2d2c33"/><path d="m290.02 360.02-14.22 14.21c-5.19 5.2-13.61 5.2-18.81 0-.35-.35-.68-.72-.99-1.11v-16.59c.31-.38.64-.75.99-1.11l14.21-14.21c2.6-2.6 6-3.9 9.41-3.9s6.81 1.3 9.41 3.9c5.19 5.19 5.19 13.61 0 18.81z" fill="#2e3140"/></g><g><g><path d="m268.271 332.843c-2.248 0-4.471-1.007-5.949-2.926-2.526-3.283-1.914-7.992 1.369-10.518 15.107-11.627 26.788-6.462 34.259-1.566 3.464 2.271 4.432 6.92 2.162 10.384-2.271 3.464-6.92 4.431-10.384 2.162-5.125-3.359-9.071-5.11-16.887.907-1.364 1.049-2.974 1.557-4.57 1.557z" fill="#3f5d77"/></g><g><path d="m243.729 332.843c2.248 0 4.471-1.007 5.949-2.926 2.526-3.283 1.914-7.992-1.369-10.518-15.107-11.627-26.788-6.462-34.259-1.566-3.464 2.271-4.432 6.92-2.162 10.384 2.271 3.464 6.92 4.431 10.384 2.162 5.125-3.359 9.071-5.11 16.887.907 1.364 1.049 2.974 1.557 4.57 1.557z" fill="#3e4e60"/></g></g></g></g></g></g></svg>