<svg id="Icons" enable-background="new 0 0 512 512" height="512" viewBox="0 0 512 512" width="512" xmlns="http://www.w3.org/2000/svg"><g><circle cx="256" cy="256" fill="#22bce0" r="256"/><g><g><g><g><g><g><path d="m297.202 293.047 47.84 47.84c2.647 2.63 2.581 6.941.005 9.482-2.62 2.62-6.867 2.62-9.487 0l-47.84-47.84z" fill="#3e4e60"/><path d="m291.422 298.827 47.84 47.84c1.961 1.961 4.842 2.453 7.26 1.48.973-2.419.482-5.299-1.48-7.26l-47.84-47.84z" fill="#3f5d77"/><path d="m339.319 342.959c-1.04 1.04-2.726 1.04-3.765 0l-16.088-16.088c-1.04-1.04-1.04-2.726 0-3.765 1.04-1.04 2.726-1.04 3.765 0l16.088 16.088c1.039 1.039 1.039 2.725 0 3.765z" fill="#3f6c8e"/></g><g><path d="m341.289 404.054c-1.881-1.881-2.909-4.591-2.5-7.466l6.324-44.804c.171-1.193 1.188-2.085 2.398-2.079 1.21-.006 2.227.886 2.398 2.08.469 3.366 5.705 40.361 6.324 44.803 1.195 8.409-9.17 13.342-14.944 7.466z" fill="#b26e2b"/><path d="m347.986 404.065c-1.891-1.878-2.928-4.596-2.517-7.484l3.245-23.018c.347-2.472 3.926-2.472 4.273 0 .801 5.713 2.455 17.364 3.25 23.024.915 4.523-3.604 11.479-8.251 7.478z" fill="#c68132"/><path d="m351.356 399.9c-4.397-4.167-2.38-12.065 3.42-13.66l1.46 10.347c.279 1.983-.119 3.881-1.011 5.489-1.414-.346-2.761-1.068-3.869-2.176z" fill="#dd8c29"/></g><g><g fill="#3e4e60"><g><path d="m377.075 442.595c.761-.761.761-1.996 0-2.757l-7.99-7.99-2.757 2.757 7.99 7.99c.762.762 1.996.762 2.757 0z"/><path d="m372.02 447.651c.761-.761.761-1.996 0-2.757l-7.99-7.99-2.757 2.757 7.99 7.99c.761.761 1.995.761 2.757 0z"/></g><path d="m369.36 434.824c-.93.939-4.062 4.069-5.047 5.054-1.314 1.314-3.441 1.314-4.755 0l-2.496-2.495c-6.227-6.609 3.067-15.994 9.746-9.746 0 0 2.495 2.495 2.495 2.495 1.295 1.292 1.315 3.378.057 4.692z"/><path d="m359.559 425.14c-1.389 1.397-3.586 3.58-4.991 4.991-1.314 1.314-3.441 1.314-4.755 0l-2.496-2.495c-6.226-6.607 3.068-15.991 9.746-9.739 0 0 2.495 2.496 2.495 2.496 1.315 1.306 1.315 3.434.001 4.747z"/><path d="m349.813 415.394c-1.39 1.404-3.581 3.583-4.991 4.998-1.314 1.307-3.441 1.307-4.748 0l-2.503-2.496c-6.225-6.608 3.065-16 9.746-9.746 0 0 2.495 2.495 2.495 2.495 1.315 1.315 1.315 3.442.001 4.749z"/></g><path d="m367.957 436.239c-1.312 1.303-3.446 1.303-4.748 0l-2.502-2.502c-2.045-2.045-2.541-5.058-1.465-7.57 2.513-1.104 5.609-.51 7.565 1.47 0 0 2.497 2.497 2.497 2.497 1.302 1.306 1.313 3.427.015 4.733-.001.001-1.362 1.372-1.362 1.372z" fill="#3f5d77"/><path d="m359.561 425.14-1.352 1.352c-1.308 1.308-3.436 1.312-4.748 0l-2.497-2.497c-2.045-2.045-2.536-5.063-1.47-7.575 2.513-1.087 5.616-.511 7.57 1.475 0 0 2.497 2.497 2.497 2.497 1.315 1.313 1.303 3.447 0 4.748z" fill="#3f5d77"/><path d="m348.472 416.744c-1.317 1.299-3.435 1.326-4.758 0 0 0-2.497-2.497-2.497-2.497-2.04-2.04-2.531-5.058-1.47-7.575 2.515-1.08 5.617-.507 7.57 1.475 0 0 2.497 2.497 2.497 2.497 1.31 1.309 1.308 3.444 0 4.748z" fill="#3f5d77"/><g fill="#3f6c8e"><path d="m350.128 414.016c-1.578 1.578-4.144 1.578-5.727-.005-2.206-2.087-1.124-6.054 1.799-6.764.861.48 2.867 2.705 3.613 3.396.896.936 1.475 2.473.315 3.373z"/><path d="m359.871 423.759c-1.578 1.578-4.144 1.578-5.722 0-2.211-2.093-1.131-6.057 1.794-6.769.861.48 2.871 2.709 3.618 3.401.903.944 1.468 2.464.31 3.368z"/><path d="m369.613 433.501c-1.578 1.578-4.139 1.583-5.722 0-2.206-2.087-1.124-6.054 1.799-6.764.861.48 2.867 2.705 3.613 3.396.9.942 1.468 2.465.31 3.368z"/></g></g></g><g><g><path d="m214.798 293.047-47.84 47.84c-2.647 2.63-2.581 6.941-.005 9.482 2.62 2.62 6.867 2.62 9.487 0l47.84-47.84z" fill="#3e4e60"/><path d="m220.578 298.827-47.84 47.84c-1.961 1.961-4.842 2.453-7.26 1.48-.973-2.419-.482-5.299 1.48-7.26l47.84-47.84z" fill="#3f5d77"/><path d="m172.681 342.959c1.04 1.04 2.726 1.04 3.765 0l16.088-16.088c1.04-1.04 1.04-2.726 0-3.765-1.04-1.04-2.726-1.04-3.765 0l-16.088 16.088c-1.039 1.039-1.039 2.725 0 3.765z" fill="#3f6c8e"/></g><g><path d="m170.711 404.054c1.881-1.881 2.909-4.591 2.5-7.466l-6.324-44.804c-.171-1.193-1.188-2.085-2.398-2.079-1.21-.006-2.227.886-2.398 2.08-.469 3.366-5.705 40.361-6.324 44.803-1.195 8.409 9.17 13.342 14.944 7.466z" fill="#b26e2b"/><path d="m164.014 404.065c1.891-1.878 2.928-4.596 2.517-7.484l-3.245-23.018c-.347-2.472-3.926-2.472-4.273 0-.801 5.713-2.455 17.364-3.25 23.024-.915 4.523 3.604 11.479 8.251 7.478z" fill="#c68132"/><path d="m160.644 399.9c4.397-4.167 2.38-12.065-3.42-13.66l-1.46 10.347c-.279 1.983.119 3.881 1.011 5.489 1.414-.346 2.761-1.068 3.869-2.176z" fill="#dd8c29"/></g><g><g fill="#3e4e60"><g><path d="m134.925 442.595c-.761-.761-.761-1.996 0-2.757l7.99-7.99 2.757 2.757-7.99 7.99c-.762.762-1.996.762-2.757 0z"/><path d="m139.98 447.651c-.761-.761-.761-1.996 0-2.757l7.99-7.99 2.757 2.757-7.99 7.99c-.761.761-1.995.761-2.757 0z"/></g><path d="m142.64 434.824c.93.939 4.062 4.069 5.047 5.054 1.314 1.314 3.441 1.314 4.755 0l2.496-2.495c6.227-6.609-3.067-15.994-9.746-9.746 0 0-2.495 2.495-2.495 2.495-1.295 1.292-1.315 3.378-.057 4.692z"/><path d="m152.441 425.14c1.389 1.397 3.586 3.58 4.991 4.991 1.314 1.314 3.441 1.314 4.755 0l2.496-2.495c6.226-6.607-3.068-15.991-9.746-9.739 0 0-2.495 2.496-2.495 2.496-1.315 1.306-1.315 3.434-.001 4.747z"/><path d="m162.187 415.394c1.39 1.404 3.581 3.583 4.991 4.998 1.314 1.307 3.441 1.307 4.748 0l2.503-2.496c6.225-6.608-3.065-16-9.746-9.746 0 0-2.495 2.495-2.495 2.495-1.315 1.315-1.315 3.442-.001 4.749z"/></g><path d="m144.043 436.239c1.313 1.303 3.446 1.303 4.748 0l2.502-2.502c2.045-2.045 2.541-5.058 1.465-7.57-2.512-1.104-5.609-.51-7.565 1.47 0 0-2.497 2.497-2.497 2.497-1.302 1.306-1.313 3.427-.015 4.733.001.001 1.362 1.372 1.362 1.372z" fill="#3f5d77"/><path d="m152.439 425.14 1.352 1.352c1.308 1.308 3.436 1.312 4.748 0l2.497-2.497c2.045-2.045 2.536-5.063 1.47-7.575-2.513-1.087-5.616-.511-7.57 1.475 0 0-2.497 2.497-2.497 2.497-1.315 1.313-1.303 3.447 0 4.748z" fill="#3f5d77"/><path d="m163.528 416.744c1.317 1.299 3.435 1.326 4.758 0 0 0 2.497-2.497 2.497-2.497 2.04-2.04 2.531-5.058 1.47-7.575-2.515-1.08-5.617-.507-7.57 1.475 0 0-2.497 2.497-2.497 2.497-1.31 1.309-1.308 3.444 0 4.748 0 .001 1.342 1.352 1.342 1.352z" fill="#3f5d77"/><g fill="#3f6c8e"><path d="m161.872 414.016c1.578 1.578 4.144 1.578 5.727-.005 2.206-2.087 1.124-6.054-1.799-6.764-.861.48-2.867 2.705-3.613 3.396-.896.936-1.475 2.473-.315 3.373z"/><path d="m152.129 423.759c1.578 1.578 4.144 1.578 5.722 0 2.211-2.093 1.131-6.057-1.794-6.769-.861.48-2.871 2.709-3.618 3.401-.903.944-1.468 2.464-.31 3.368z"/><path d="m142.387 433.501c1.578 1.578 4.139 1.583 5.722 0 2.206-2.087 1.124-6.054-1.799-6.764-.861.48-2.867 2.705-3.613 3.396-.9.942-1.468 2.465-.31 3.368z"/></g></g></g></g><g><g><g><path d="m284.366 200.501h45.381c3.731-.012 6.733 3.083 6.708 6.701 0 3.705-3.003 6.708-6.708 6.708h-45.381z" fill="#3e4e60"/><path d="m284.366 208.676h45.381c2.774 0 5.158-1.689 6.18-4.087-1.022-2.398-3.406-4.087-6.18-4.087h-45.381z" fill="#3f5d77"/><path d="m327.165 206.014c0 1.47-1.192 2.663-2.663 2.663h-22.752c-1.47 0-2.663-1.192-2.663-2.663 0-1.47 1.192-2.663 2.663-2.663h22.752c1.471 0 2.663 1.192 2.663 2.663z" fill="#3f6c8e"/></g><g><path d="m371.199 162.471c-2.66 0-5.304 1.189-7.047 3.512l-27.209 36.153c-.723.964-.635 2.314.225 3.166.852.86 2.202.948 3.166.225 2.712-2.048 32.574-24.505 36.153-27.209 6.791-5.102 2.95-15.918-5.288-15.847z" fill="#b26e2b"/><path d="m375.943 167.2c-2.665-.009-5.32 1.18-7.072 3.512l-13.982 18.571c-1.503 1.993 1.028 4.524 3.022 3.021 4.606-3.473 14.015-10.542 18.578-13.982 3.845-2.551 5.569-10.665-.546-11.122z" fill="#c68132"/><path d="m375.38 172.527c-6.056-.162-10.214 6.848-7.24 12.078l8.349-6.284c1.599-1.205 2.66-2.829 3.166-4.596-1.245-.756-2.708-1.198-4.275-1.198z" fill="#dd8c29"/></g><g><g fill="#3e4e60"><g><path d="m430.09 158.028c0-1.077-.873-1.95-1.95-1.95h-11.299v3.899h11.299c1.077 0 1.95-.873 1.95-1.949z"/><path d="m430.09 165.178c0-1.077-.873-1.95-1.95-1.95h-11.299v3.899h11.299c1.077 0 1.95-.873 1.95-1.949z"/></g><path d="m419.139 157.988c.007 1.321.005 5.75.005 7.142 0 1.858-1.504 3.362-3.362 3.362h-3.529c-9.09-.303-9.152-13.446 0-13.783h3.529c1.828 0 3.318 1.46 3.357 3.279z"/><path d="m405.361 158.071c.005 1.97-.004 5.067 0 7.058 0 1.858-1.504 3.362-3.362 3.362h-3.529c-9.087-.302-9.15-13.444.005-13.778h3.529c1.853-.004 3.357 1.5 3.357 3.358z"/><path d="m391.578 158.071c.01 1.975.001 5.066.005 7.063-.005 1.853-1.509 3.357-3.357 3.357l-3.534.005c-9.074-.271-9.147-13.481 0-13.783h3.529c1.858.001 3.362 1.505 3.357 3.358z"/></g><path d="m419.147 159.981c-.007 1.849-1.515 3.358-3.358 3.358h-3.538c-2.892 0-5.374-1.78-6.388-4.317.996-2.558 3.605-4.327 6.388-4.31h3.531c1.824.005 3.313 1.455 3.358 3.274v.062z" fill="#3f5d77"/><path d="m405.363 158.069v1.912c0 1.849-1.501 3.358-3.358 3.358h-3.531c-2.892 0-5.374-1.787-6.395-4.317 1.008-2.546 3.61-4.333 6.395-4.31h3.531c1.858-.001 3.359 1.517 3.358 3.357z" fill="#3f5d77"/><path d="m391.585 159.974c-.012 1.85-1.491 3.367-3.365 3.365h-3.531c-2.885 0-5.367-1.787-6.395-4.317 1.015-2.543 3.613-4.331 6.395-4.31h3.531c1.852-.001 3.36 1.51 3.358 3.358z" fill="#3f5d77"/><g fill="#3f6c8e"><path d="m390.827 156.874c0 2.231-1.814 4.046-4.053 4.046-3.036.084-5.076-3.486-3.51-6.055.948-.269 3.94-.115 4.956-.153 1.294.028 2.791.705 2.607 2.162z"/><path d="m404.605 156.874c0 2.231-1.814 4.046-4.046 4.046-3.043.084-5.083-3.483-3.517-6.055.948-.269 3.945-.115 4.963-.153 1.306.029 2.78.704 2.6 2.162z"/><path d="m418.383 156.874c0 2.231-1.807 4.046-4.046 4.046-3.036.084-5.076-3.486-3.511-6.055.948-.269 3.94-.115 4.956-.153 1.302.029 2.781.704 2.601 2.162z"/></g></g></g><g><g><path d="m227.634 200.501h-45.381c-3.731-.012-6.733 3.083-6.708 6.701 0 3.705 3.003 6.708 6.708 6.708h45.381z" fill="#3e4e60"/><path d="m227.634 208.676h-45.381c-2.774 0-5.158-1.689-6.18-4.087 1.022-2.398 3.406-4.087 6.18-4.087h45.381z" fill="#3f5d77"/><path d="m184.835 206.014c0 1.47 1.192 2.663 2.663 2.663h22.752c1.47 0 2.663-1.192 2.663-2.663 0-1.47-1.192-2.663-2.663-2.663h-22.752c-1.471 0-2.663 1.192-2.663 2.663z" fill="#3f6c8e"/></g><g><path d="m140.801 162.471c2.66 0 5.304 1.189 7.047 3.512l27.209 36.153c.723.964.635 2.314-.225 3.166-.852.86-2.202.948-3.166.225-2.712-2.048-32.574-24.505-36.153-27.209-6.791-5.102-2.95-15.918 5.288-15.847z" fill="#b26e2b"/><path d="m136.057 167.2c2.665-.009 5.32 1.18 7.072 3.512l13.982 18.571c1.503 1.993-1.028 4.524-3.022 3.021-4.606-3.473-14.015-10.542-18.578-13.982-3.845-2.551-5.569-10.665.546-11.122z" fill="#c68132"/><path d="m136.62 172.527c6.056-.162 10.214 6.848 7.24 12.078l-8.349-6.284c-1.599-1.205-2.66-2.829-3.166-4.596 1.245-.756 2.708-1.198 4.275-1.198z" fill="#dd8c29"/></g><g><g fill="#3e4e60"><g><path d="m81.91 158.028c0-1.077.873-1.95 1.95-1.95h11.299v3.899h-11.299c-1.077 0-1.95-.873-1.95-1.949z"/><path d="m81.91 165.178c0-1.077.873-1.95 1.95-1.95h11.299v3.899h-11.299c-1.077 0-1.95-.873-1.95-1.949z"/></g><path d="m92.861 157.988c-.007 1.321-.005 5.75-.005 7.142 0 1.858 1.504 3.362 3.362 3.362h3.529c9.09-.303 9.152-13.446 0-13.783h-3.529c-1.828 0-3.318 1.46-3.357 3.279z"/><path d="m106.639 158.071c-.005 1.97.004 5.067 0 7.058 0 1.858 1.504 3.362 3.362 3.362h3.529c9.087-.302 9.15-13.444-.005-13.778h-3.529c-1.853-.004-3.357 1.5-3.357 3.358z"/><path d="m120.422 158.071c-.01 1.975-.001 5.066-.005 7.063.005 1.853 1.509 3.357 3.357 3.357l3.534.005c9.074-.271 9.147-13.481 0-13.783h-3.529c-1.858.001-3.362 1.505-3.357 3.358z"/></g><path d="m92.853 159.981c.007 1.849 1.515 3.358 3.358 3.358h3.538c2.892 0 5.374-1.78 6.388-4.317-.996-2.558-3.605-4.327-6.388-4.31h-3.531c-1.824.005-3.313 1.455-3.358 3.274v.062z" fill="#3f5d77"/><path d="m106.637 158.069v1.912c0 1.849 1.502 3.358 3.358 3.358h3.531c2.892 0 5.374-1.787 6.395-4.317-1.008-2.546-3.61-4.333-6.395-4.31h-3.531c-1.858-.001-3.359 1.517-3.358 3.357z" fill="#3f5d77"/><path d="m120.415 159.974c.012 1.85 1.491 3.367 3.365 3.365h3.531c2.885 0 5.367-1.787 6.395-4.317-1.015-2.543-3.613-4.331-6.395-4.31h-3.531c-1.852-.001-3.36 1.51-3.358 3.358z" fill="#3f5d77"/><g fill="#3f6c8e"><path d="m121.173 156.874c0 2.231 1.814 4.046 4.053 4.046 3.036.084 5.076-3.486 3.51-6.055-.948-.269-3.94-.115-4.956-.153-1.294.028-2.791.705-2.607 2.162z"/><path d="m107.395 156.874c0 2.231 1.814 4.046 4.046 4.046 3.043.084 5.083-3.483 3.517-6.055-.948-.269-3.945-.115-4.963-.153-1.306.029-2.78.704-2.6 2.162z"/><path d="m93.617 156.874c0 2.231 1.807 4.046 4.046 4.046 3.036.084 5.076-3.486 3.511-6.055-.948-.269-3.94-.115-4.956-.153-1.302.029-2.781.704-2.601 2.162z"/></g></g></g></g><g><g><g><path d="m286.95 177.057h42.797c3.731-.012 6.733 3.083 6.708 6.701 0 3.705-3.003 6.708-6.708 6.708h-42.797z" fill="#3e4e60"/><path d="m286.95 185.232h42.797c2.774 0 5.158-1.689 6.18-4.087-1.022-2.398-3.406-4.087-6.18-4.087h-42.797z" fill="#3f5d77"/><path d="m327.165 182.57c0 1.47-1.192 2.663-2.663 2.663h-22.752c-1.47 0-2.663-1.192-2.663-2.663 0-1.47 1.192-2.663 2.663-2.663h22.752c1.471 0 2.663 1.192 2.663 2.663z" fill="#3f6c8e"/></g><g><path d="m331.858 126.795c-1.881 1.881-2.909 4.591-2.5 7.466l6.324 44.804c.171 1.193 1.188 2.085 2.398 2.079 1.21.006 2.227-.886 2.398-2.08.469-3.366 5.705-40.361 6.324-44.803 1.195-8.409-9.169-13.342-14.944-7.466z" fill="#b26e2b"/><path d="m338.556 126.784c-1.891 1.878-2.928 4.596-2.517 7.484l3.245 23.018c.347 2.472 3.926 2.472 4.273 0 .801-5.713 2.455-17.364 3.25-23.024.915-4.523-3.604-11.479-8.251-7.478z" fill="#c68132"/><path d="m341.925 130.949c-4.397 4.167-2.38 12.065 3.42 13.66l1.46-10.347c.279-1.983-.119-3.881-1.011-5.489-1.414.347-2.76 1.068-3.869 2.176z" fill="#dd8c29"/></g><g><g fill="#3e4e60"><g><path d="m374.743 83.545c-.761-.761-1.996-.761-2.757 0l-7.99 7.99 2.757 2.757 7.99-7.99c.762-.762.762-1.996 0-2.757z"/><path d="m379.799 88.6c-.761-.761-1.996-.761-2.757 0l-7.99 7.99 2.757 2.757 7.99-7.99c.762-.761.762-1.995 0-2.757z"/></g><path d="m366.972 91.26c.939.93 4.069 4.062 5.054 5.047 1.314 1.314 1.314 3.441 0 4.755l-2.495 2.496c-6.609 6.227-15.994-3.067-9.746-9.746 0 0 2.495-2.495 2.495-2.495 1.292-1.295 3.378-1.316 4.692-.057z"/><path d="m357.289 101.061c1.397 1.389 3.58 3.586 4.991 4.991 1.314 1.314 1.314 3.441 0 4.755l-2.495 2.496c-6.607 6.226-15.991-3.068-9.739-9.746 0 0 2.496-2.495 2.496-2.495 1.305-1.315 3.433-1.315 4.747-.001z"/><path d="m347.543 110.807c1.404 1.39 3.583 3.581 4.998 4.991 1.307 1.314 1.307 3.441 0 4.748l-2.496 2.503c-6.608 6.225-16-3.065-9.746-9.746 0 0 2.495-2.495 2.495-2.495 1.314-1.315 3.441-1.315 4.749-.001z"/></g><path d="m368.387 92.663c1.303 1.313 1.303 3.446 0 4.748l-2.502 2.502c-2.045 2.045-5.058 2.541-7.57 1.465-1.104-2.513-.51-5.609 1.47-7.565 0 0 2.497-2.497 2.497-2.497 1.306-1.302 3.427-1.313 4.733-.015.001.001 1.372 1.362 1.372 1.362z" fill="#3f5d77"/><path d="m357.288 101.059 1.352 1.352c1.308 1.308 1.312 3.436 0 4.748l-2.497 2.497c-2.045 2.045-5.063 2.536-7.575 1.47-1.087-2.513-.511-5.616 1.475-7.57 0 0 2.497-2.497 2.497-2.497 1.313-1.315 3.448-1.303 4.748 0z" fill="#3f5d77"/><path d="m348.892 112.148c1.299 1.317 1.326 3.435 0 4.758 0 0-2.497 2.497-2.497 2.497-2.04 2.04-5.058 2.531-7.575 1.47-1.08-2.515-.507-5.617 1.475-7.57 0 0 2.497-2.497 2.497-2.497 1.309-1.31 3.444-1.308 4.748 0z" fill="#3f5d77"/><g fill="#3f6c8e"><path d="m346.164 110.491c1.578 1.578 1.578 4.144-.005 5.727-2.087 2.206-6.054 1.124-6.764-1.799.48-.861 2.705-2.867 3.396-3.613.936-.895 2.473-1.474 3.373-.315z"/><path d="m355.907 100.749c1.578 1.578 1.578 4.144 0 5.722-2.093 2.211-6.057 1.131-6.769-1.794.48-.861 2.709-2.871 3.401-3.618.945-.903 2.464-1.468 3.368-.31z"/><path d="m365.649 91.007c1.578 1.578 1.583 4.139 0 5.722-2.087 2.206-6.054 1.124-6.764-1.799.48-.861 2.705-2.867 3.396-3.613.942-.9 2.465-1.468 3.368-.31z"/></g></g></g><g><g><path d="m225.05 177.057h-42.797c-3.731-.012-6.733 3.083-6.708 6.701 0 3.705 3.003 6.708 6.708 6.708h42.797z" fill="#3e4e60"/><path d="m225.05 185.232h-42.797c-2.774 0-5.158-1.689-6.18-4.087 1.022-2.398 3.406-4.087 6.18-4.087h42.797z" fill="#3f5d77"/><path d="m184.835 182.57c0 1.47 1.192 2.663 2.663 2.663h22.752c1.47 0 2.663-1.192 2.663-2.663 0-1.47-1.192-2.663-2.663-2.663h-22.752c-1.471 0-2.663 1.192-2.663 2.663z" fill="#3f6c8e"/></g><g><path d="m180.142 126.795c1.881 1.881 2.909 4.591 2.5 7.466l-6.324 44.804c-.171 1.193-1.188 2.085-2.398 2.079-1.21.006-2.227-.886-2.398-2.08-.469-3.366-5.705-40.361-6.324-44.803-1.195-8.409 9.169-13.342 14.944-7.466z" fill="#b26e2b"/><path d="m173.444 126.784c1.891 1.878 2.928 4.596 2.517 7.484l-3.245 23.018c-.347 2.472-3.926 2.472-4.273 0-.801-5.713-2.455-17.364-3.25-23.024-.915-4.523 3.604-11.479 8.251-7.478z" fill="#c68132"/><path d="m170.075 130.949c4.397 4.167 2.38 12.065-3.42 13.66l-1.46-10.347c-.279-1.983.119-3.881 1.011-5.489 1.414.347 2.76 1.068 3.869 2.176z" fill="#dd8c29"/></g><g><g fill="#3e4e60"><g><path d="m137.257 83.545c.761-.761 1.996-.761 2.757 0l7.99 7.99-2.757 2.757-7.99-7.99c-.762-.762-.762-1.996 0-2.757z"/><path d="m132.201 88.6c.761-.761 1.996-.761 2.757 0l7.99 7.99-2.757 2.757-7.99-7.99c-.762-.761-.762-1.995 0-2.757z"/></g><path d="m145.028 91.26c-.939.93-4.069 4.062-5.054 5.047-1.314 1.314-1.314 3.441 0 4.755l2.495 2.496c6.609 6.227 15.994-3.067 9.746-9.746 0 0-2.495-2.495-2.495-2.495-1.292-1.295-3.378-1.316-4.692-.057z"/><path d="m154.711 101.061c-1.397 1.389-3.58 3.586-4.991 4.991-1.314 1.314-1.314 3.441 0 4.755l2.495 2.496c6.607 6.226 15.991-3.068 9.739-9.746 0 0-2.496-2.495-2.496-2.495-1.305-1.315-3.433-1.315-4.747-.001z"/><path d="m164.457 110.807c-1.404 1.39-3.583 3.581-4.998 4.991-1.307 1.314-1.307 3.441 0 4.748l2.496 2.503c6.608 6.225 16-3.065 9.746-9.746 0 0-2.495-2.495-2.495-2.495-1.314-1.315-3.441-1.315-4.749-.001z"/></g><path d="m143.613 92.663c-1.303 1.313-1.303 3.446 0 4.748l2.502 2.502c2.045 2.045 5.058 2.541 7.57 1.465 1.104-2.513.51-5.609-1.47-7.565 0 0-2.497-2.497-2.497-2.497-1.306-1.302-3.427-1.313-4.734-.015 0 .001-1.371 1.362-1.371 1.362z" fill="#3f5d77"/><path d="m154.712 101.059-1.352 1.352c-1.308 1.308-1.312 3.436 0 4.748l2.497 2.497c2.045 2.045 5.063 2.536 7.575 1.47 1.087-2.513.511-5.616-1.475-7.57 0 0-2.497-2.497-2.497-2.497-1.313-1.315-3.448-1.303-4.748 0z" fill="#3f5d77"/><path d="m163.108 112.148c-1.299 1.317-1.326 3.435 0 4.758 0 0 2.497 2.497 2.497 2.497 2.04 2.04 5.058 2.531 7.575 1.47 1.08-2.515.507-5.617-1.475-7.57 0 0-2.497-2.497-2.497-2.497-1.309-1.31-3.444-1.308-4.748 0z" fill="#3f5d77"/><g fill="#3f6c8e"><path d="m165.836 110.491c-1.578 1.578-1.578 4.144.005 5.727 2.087 2.206 6.054 1.124 6.764-1.799-.48-.861-2.705-2.867-3.396-3.613-.936-.895-2.473-1.474-3.373-.315z"/><path d="m156.093 100.749c-1.578 1.578-1.578 4.144 0 5.722 2.093 2.211 6.057 1.131 6.769-1.794-.48-.861-2.709-2.871-3.401-3.618-.945-.903-2.464-1.468-3.368-.31z"/><path d="m146.351 91.007c-1.578 1.578-1.583 4.139 0 5.722 2.087 2.206 6.054 1.124 6.764-1.799-.48-.861-2.705-2.867-3.396-3.613-.942-.9-2.465-1.468-3.368-.31z"/></g></g></g></g></g><g><g><path d="m301.892 284.448v84.319c-.118 13.966-5.661 29.393-13.444 41.489-27.394 42.605-63.127 18.288-75.528-23.393-1.816-6.308-2.812-12.519-2.812-18.096v-84.319c0-16.795 13.613-30.408 30.407-30.408h30.97c16.795.001 30.407 13.613 30.407 30.408z" fill="#f39e22"/><path d="m301.892 284.448v84.319c.085 23.418-18.933 63.406-45.892 63.972v-178.698h15.485c16.795 0 30.407 13.612 30.407 30.407z" fill="#f9c744"/></g><path d="m265.385 413.752c-5.186 0-9.389-4.204-9.389-9.389v-111.343c0-5.186 4.204-9.389 9.389-9.389 5.186 0 9.389 4.204 9.389 9.389v111.343c.001 5.186-4.203 9.389-9.389 9.389z" fill="#fad98f"/><g fill="#3e4e60"><path d="m299.072 386.864c-5.466 19.658-22.045 45.867-43.072 45.876-19.768 0-36.619-23.505-43.08-45.876z"/><path d="m210.108 348.076h91.784v20.691h-91.784z"/><path d="m210.108 321.488h91.784v13.588h-91.784z"/><path d="m210.108 302.235h91.784v10.174h-91.784z"/></g><path d="m256 386.86v45.88c21.036-.017 37.605-26.212 43.07-45.88zm0-38.78v20.69h45.89v-20.69zm0-26.59v13.59h45.89v-13.59zm0-19.26v10.18h45.89v-10.18z" fill="#3f5d77"/><g fill="#3f6c8e"><path d="m256 302.23h18.77v10.18h-18.77z"/><path d="m256 321.49h18.77v13.59h-18.77z"/><path d="m256 348.08h18.77v20.69h-18.77z"/><path d="m256 386.86h18.77v17.5c0 5.19-4.2 9.39-9.38 9.39-5.19 0-9.39-4.2-9.39-9.39z"/></g></g><g><path d="m296.95 196.221v26.683c0 17.195-13.942 31.137-31.144 31.137h-19.611c-17.202 0-31.144-13.942-31.144-31.137v-26.683c0-17.202 13.942-31.144 31.144-31.144h19.611c17.201 0 31.144 13.943 31.144 31.144z" fill="#b26e2b"/><path d="m296.95 196.221v26.683c0 17.195-13.942 31.137-31.144 31.137h-9.806v-88.965h9.806c17.201.001 31.144 13.944 31.144 31.145z" fill="#c68132"/><path d="m279.187 199.635v19.855c0 12.795-7.895 23.169-17.635 23.169h-11.104c-9.74 0-17.635-10.374-17.635-23.169v-19.855c0-12.8 7.895-23.174 17.635-23.174h11.104c9.74 0 17.635 10.374 17.635 23.174z" fill="#3e4e60"/><path d="m279.187 199.635v19.855c0 12.795-7.895 23.169-17.635 23.169h-5.552v-66.198h5.552c9.74 0 17.635 10.374 17.635 23.174z" fill="#3f5d77"/></g><g><g><path d="m296.95 134.646v7.289c0 12.777-10.366 23.143-23.143 23.143h-35.614c-12.777 0-23.143-10.366-23.143-23.143v-7.289c0-12.777 10.366-23.143 23.143-23.143h35.614c12.777 0 23.143 10.366 23.143 23.143z" fill="#334353"/><path d="m296.95 134.646v7.289c0 12.777-10.366 23.143-23.143 23.143h-17.807v-53.574h17.807c12.777-.001 23.143 10.365 23.143 23.142z" fill="#3e4e60"/></g><g><g><path d="m296.95 95.367c0 1.559-.595 3.126-1.792 4.315l-23.304 23.312c-5.054 4.949-13.029-1.182-9.643-7.304.265-.474.603-.924 1.004-1.334l23.304-23.312c3.702-3.845 10.546-.996 10.431 4.323z" fill="#3f5d77"/><path d="m296.163 92.378c-.265.474-.603.924-1.004 1.326l-23.304 23.312c-2.774 2.862-7.751 2.16-9.643-1.326.265-.474.603-.924 1.004-1.334l23.304-23.312c2.764-2.849 7.769-2.161 9.643 1.334z" fill="#3f6c8e"/></g><g><path d="m248.784 122.994c-2.379 2.387-6.252 2.387-8.638 0l-23.304-23.312c-2.411-2.382-2.339-6.33 0-8.638 2.391-2.38 6.256-2.378 8.638 0 0 0 23.304 23.312 23.304 23.312 2.332 2.317 2.417 6.246 0 8.638z" fill="#3e4e60"/><path d="m249.788 115.689c-1.895 3.485-6.867 4.189-9.643 1.326 0 0-23.304-23.311-23.304-23.311-.402-.402-.739-.852-1.004-1.326 1.877-3.495 6.882-4.182 9.643-1.334 0 0 23.304 23.311 23.304 23.311.402.41.739.86 1.004 1.334z" fill="#3f5d77"/></g></g><g><g><path d="m302.696 141.685c.057 3.019.072 6.609-1.31 9.281-2.306 5.095-7.433 8.638-13.387 8.638h-3.222c-8.116 0-14.697-6.581-14.697-14.697v-3.222c-.033-8.185 6.769-14.744 14.697-14.689h3.222c8.115 0 14.697 6.573 14.697 14.689z" fill="#3f5d77"/><path d="m302.696 141.685c.07 3.021.063 6.607-1.31 9.281-2.474 1.123-5.842 1.048-8.574 1.013-8.116 0-14.697-6.581-14.697-14.697-.063-3.013-.068-6.613 1.31-9.281 2.477-1.107 5.841-1.043 8.574-1.004 8.115-.001 14.697 6.572 14.697 14.688z" fill="#3f6c8e"/><path d="m298.342 143.384c-1.755 1.755-4.6 1.755-6.355 0l-5.417-5.417c-4.084-4.295 2.058-10.441 6.356-6.355 0 0 5.417 5.417 5.417 5.417 1.754 1.755 1.754 4.6-.001 6.355z" fill="#cde6f6"/></g><g><path d="m241.921 141.685v3.222c0 8.116-6.581 14.697-14.697 14.697h-3.222c-8.185.026-14.738-6.755-14.697-14.697v-3.222c0-8.116 6.581-14.689 14.697-14.689h3.222c7.928-.054 14.73 6.504 14.697 14.689z" fill="#3e4e60"/><path d="m233.886 134.059v3.223c0 8.116-6.581 14.697-14.697 14.697-2.734.033-6.095.11-8.574-1.013-1.376-2.665-1.377-6.268-1.31-9.281 0-8.116 6.581-14.689 14.697-14.689 2.731-.031 6.096-.108 8.574 1.004.844 1.849 1.31 3.897 1.31 6.059z" fill="#3f5d77"/><path d="m213.658 143.384c-1.755-1.755-1.755-4.6 0-6.355l5.417-5.417c4.295-4.084 10.441 2.058 6.355 6.356 0 0-5.417 5.417-5.417 5.417-1.755 1.754-4.6 1.754-6.355-.001z" fill="#83d5ef"/></g></g></g></g><g><g><g fill="#cde6f6"><path d="m472.07 229.51c0 9.7-5.94 18.86-15.84 23.46l-20.38 9.46c-25.74 11.95-55.61 13.85-82.77 5.51-1.937-.236-64.159-24.537-68.11-26.02-10.154-4.075-7.295-17.422 3.35-18.12 6.876-.446 74.403-4.844 78.94-5.13 15.747-.426 52.391-11.16 68.09-14.62 17.928-4.504 36.667 7.676 36.72 25.46z"/><path d="m398.46 320.12c-28.475 16.732-62.819 10.843-88.78-7.16-9.34-6.5-17.07-14.5-22.68-23.62l-20.21-32.84c-1.63-2.64-1.05-5.87 1.45-8.13 2.696-2.448 7.031-3.174 10.5-1.87 0 0 74.93 27.72 74.93 27.72l41.92 15.51c15.01 5.55 16.59 22.32 2.87 30.39z"/></g><g fill="#fff"><path d="m398.46 320.12c-8.42 4.95-18.01 8.11-27.9 9.35-8.79-16.87-14.64-35.52-16.89-55.25l41.92 15.51c15.01 5.55 16.59 22.32 2.87 30.39z"/><path d="m472.07 229.51c0 9.7-5.94 18.86-15.84 23.46l-20.38 9.46c-25.74 11.95-55.61 13.85-82.77 5.51-1.23-16.204.128-33.16 3.8-48.6 10.886-.586 22.639-1.433 33.14-4.17 0 0 45.33-11.12 45.33-11.12 17.928-4.505 36.667 7.676 36.72 25.46z"/></g></g><g><g fill="#83d5ef"><path d="m227.03 241.92c-4.227 1.515-65.967 25.8-68.11 26.02-27.16 8.34-57.03 6.44-82.77-5.51l-20.38-9.46c-12.212-5.692-18.426-18.261-14.82-30.37 4.2-14.05 20.19-22.36 35.7-18.55l45.33 11.12c10.469 2.727 22.296 3.592 33.14 4.17 0 0 68.56 4.46 68.56 4.46 10.569.676 13.566 14.016 3.35 18.12z"/><path d="m245.21 256.5-20.21 32.84c-5.61 9.12-13.34 17.12-22.68 23.62-14.207 9.8-33.143 17.184-51.25 17.12-13.067.008-26.39-3.394-37.53-9.96-13.72-8.07-12.14-24.84 2.87-30.39 25.867-9.573 90.268-33.396 116.85-43.23 6.231-2.644 15.938 2.945 11.95 10z"/></g><g fill="#cde6f6"><path d="m116.41 289.73 41.92-15.51c-2.25 19.73-8.1 38.38-16.89 55.25-9.89-1.24-19.48-4.4-27.9-9.35-13.72-8.07-12.14-24.84 2.87-30.39z"/><path d="m159.36 256c0 4.02-.15 8-.44 11.94-27.16 8.34-57.03 6.44-82.77-5.51l-20.38-9.46c-9.9-4.6-15.84-13.76-15.84-23.46.057-17.783 18.789-29.964 36.72-25.46 0 0 45.33 11.12 45.33 11.12 10.488 2.729 22.282 3.591 33.14 4.17 2.77 11.77 4.24 24.05 4.24 36.66z"/></g></g></g></g></g></svg>