<svg id="Capa_1" enable-background="new 0 0 512 512" height="512" viewBox="0 0 512 512" width="512" xmlns="http://www.w3.org/2000/svg"><g><g><g><path d="m504.5 78.01v355.98c0 5.52-4.48 10-10 10h-477c-5.52 0-10-4.48-10-10v-355.98c0-5.52 4.48-10 10-10h477c5.52 0 10 4.48 10 10z" fill="#e8e6ed"/><path d="m504.5 78.01v355.98c0 5.52-4.48 10-10 10h-119.78c110.64-95.77 108.18-318.45 105.57-375.98h14.21c5.52 0 10 4.48 10 10z" fill="#d1d0d8"/><path d="m504.5 78.01v53.03h-497v-53.03c0-5.52 4.48-10 10-10h477c5.52 0 10 4.48 10 10z" fill="#83f6ff"/><path d="m504.5 78.01v53.03h-23.83c.82-27.46.23-49.69-.38-63.03h14.21c5.52 0 10 4.48 10 10z" fill="#26e4ff"/></g><g><g><path d="m231.213 279.914c0 18.9-6.55 36.27-17.51 49.95-14.66 18.31-37.2 30.04-62.48 30.04s-47.82-11.73-62.48-30.04c-10.96-13.68-17.51-31.05-17.51-49.95 0-44.18 35.81-79.99 79.99-79.99s79.99 35.81 79.99 79.99z" fill="#717177"/><path d="m231.213 279.914c0 18.9-6.55 36.27-17.51 49.95-14.66 18.31-37.2 30.04-62.48 30.04-16.16 0-31.21-4.79-43.78-13.05 6.8 1.89 13.97 2.9 21.37 2.9 25.28 0 47.82-11.73 62.48-30.04 10.96-13.68 17.51-31.05 17.51-49.95 0-28.02-14.4-52.67-36.21-66.95 33.8 9.34 58.62 40.32 58.62 77.1z" fill="#5f5f68"/><path d="m213.703 329.864c-14.66 18.31-37.2 30.04-62.48 30.04-16.16 0-31.21-4.79-43.78-13.05-7.1-4.64-13.41-10.38-18.7-16.99 9.18-15.98 24.31-28.1 42.38-33.35-6.91-5.76-11.3-14.42-11.3-24.11 0-17.35 14.06-31.4 31.4-31.4s31.4 14.05 31.4 31.4c0 9.69-4.39 18.35-11.3 24.11 9.79 2.84 18.71 7.7 26.29 14.09 6.42 5.42 11.88 11.93 16.09 19.26z" fill="#d1d0d8"/><path d="m213.703 329.864c-14.66 18.31-37.2 30.04-62.48 30.04-16.16 0-31.21-4.79-43.78-13.05 6.8 1.89 13.97 2.9 21.37 2.9 25.28 0 47.82-11.73 62.48-30.04 2.31-2.88 4.42-5.92 6.32-9.11 6.42 5.42 11.88 11.93 16.09 19.26z" fill="#bdbcc4"/></g><g><g><path d="m421.244 265.086h-130.275c-10.782 0-19.523-8.741-19.523-19.523 0-10.782 8.741-19.523 19.523-19.523h130.275c10.782 0 19.523 8.741 19.523 19.523 0 10.783-8.741 19.523-19.523 19.523z" fill="#83f6ff"/></g><g><path d="m421.244 357.703h-130.275c-10.782 0-19.523-8.741-19.523-19.523 0-10.782 8.741-19.523 19.523-19.523h130.275c10.782 0 19.523 8.741 19.523 19.523 0 10.782-8.741 19.523-19.523 19.523z" fill="#06b9ff"/></g></g></g></g><g><path d="m494.5 60.514h-168.098c-4.142 0-7.5 3.358-7.5 7.5s3.358 7.5 7.5 7.5h168.098c1.378 0 2.5 1.122 2.5 2.5v45.527h-482v-45.527c0-1.378 1.122-2.5 2.5-2.5h274.38c4.142 0 7.5-3.358 7.5-7.5s-3.358-7.5-7.5-7.5h-274.38c-9.649 0-17.5 7.851-17.5 17.5v355.973c0 9.649 7.851 17.5 17.5 17.5h283.572c4.142 0 7.5-3.358 7.5-7.5s-3.358-7.5-7.5-7.5h-283.572c-1.378 0-2.5-1.122-2.5-2.5v-295.446h482v28.412c0 4.142 3.358 7.5 7.5 7.5s7.5-3.358 7.5-7.5v-88.939c0-9.65-7.851-17.5-17.5-17.5z"/><path d="m504.5 193.975c-4.142 0-7.5 3.358-7.5 7.5v232.511c0 1.378-1.122 2.5-2.5 2.5h-158.905c-4.142 0-7.5 3.358-7.5 7.5s3.358 7.5 7.5 7.5h158.905c9.649 0 17.5-7.851 17.5-17.5v-232.511c0-4.142-3.358-7.5-7.5-7.5z"/><path d="m47.433 92.027c-4.142 0-7.5 3.358-7.5 7.5s3.358 7.5 7.5 7.5h.113c4.142 0 7.5-3.358 7.5-7.5s-3.358-7.5-7.5-7.5z"/><path d="m70.076 92.027c-4.142 0-7.5 3.358-7.5 7.5s3.358 7.5 7.5 7.5h.113c4.142 0 7.5-3.358 7.5-7.5s-3.358-7.5-7.5-7.5z"/><path d="m92.719 92.027c-4.142 0-7.5 3.358-7.5 7.5s3.358 7.5 7.5 7.5h.113c4.142 0 7.5-3.358 7.5-7.5s-3.358-7.5-7.5-7.5z"/><path d="m464.567 107.027c4.142 0 7.5-3.358 7.5-7.5s-3.358-7.5-7.5-7.5h-13.956c-4.142 0-7.5 3.358-7.5 7.5s3.358 7.5 7.5 7.5z"/><path d="m238.712 279.915c0-48.242-39.247-87.489-87.489-87.489s-87.489 39.247-87.489 87.489 39.247 87.489 87.489 87.489 87.489-39.248 87.489-87.489zm-87.489-72.489c39.971 0 72.489 32.518 72.489 72.489 0 13.356-3.646 25.871-9.973 36.628-7.892-10.071-18.03-18.037-29.667-23.298 3.916-6.158 6.051-13.356 6.051-20.84 0-21.45-17.45-38.9-38.9-38.9s-38.9 17.45-38.9 38.9c0 7.483 2.135 14.682 6.051 20.84-11.637 5.261-21.771 13.234-29.664 23.304-6.329-10.758-9.976-23.275-9.976-36.633 0-39.972 32.518-72.49 72.489-72.49zm0 144.977c-20.982 0-39.901-8.97-53.151-23.266 8.437-12.288 20.736-21.235 35.143-25.421 2.663-.773 4.681-2.954 5.249-5.667.567-2.714-.409-5.521-2.539-7.296-5.467-4.557-8.602-11.244-8.602-18.349 0-13.178 10.722-23.9 23.9-23.9s23.9 10.722 23.9 23.9c0 7.104-3.135 13.792-8.602 18.349-2.13 1.775-3.106 4.581-2.539 7.295s2.586 4.894 5.249 5.667c14.407 4.186 26.706 13.133 35.143 25.421-13.249 14.297-32.168 23.267-53.151 23.267z"/><path d="m290.969 272.586h130.275c14.9 0 27.023-12.123 27.023-27.023s-12.123-27.023-27.023-27.023h-130.275c-14.9 0-27.023 12.123-27.023 27.023s12.123 27.023 27.023 27.023zm0-39.045h130.275c6.629 0 12.023 5.394 12.023 12.023s-5.394 12.023-12.023 12.023h-130.275c-6.629 0-12.023-5.394-12.023-12.023s5.394-12.023 12.023-12.023z"/><path d="m296.187 209.626c4.142 0 7.5-3.358 7.5-7.5s-3.358-7.5-7.5-7.5h-22.203c-4.142 0-7.5 3.358-7.5 7.5s3.358 7.5 7.5 7.5z"/><path d="m290.969 365.203h130.275c14.9 0 27.023-12.123 27.023-27.023s-12.123-27.023-27.023-27.023h-130.275c-14.9 0-27.023 12.123-27.023 27.023s12.123 27.023 27.023 27.023zm0-39.046h130.275c6.629 0 12.023 5.394 12.023 12.023s-5.394 12.023-12.023 12.023h-130.275c-6.629 0-12.023-5.394-12.023-12.023s5.394-12.023 12.023-12.023z"/><path d="m273.984 287.243c-4.142 0-7.5 3.358-7.5 7.5s3.358 7.5 7.5 7.5h22.203c4.142 0 7.5-3.358 7.5-7.5s-3.358-7.5-7.5-7.5z"/><path d="m134.566 381.497c-4.142 0-7.5 3.358-7.5 7.5s3.358 7.5 7.5 7.5h33.314c4.142 0 7.5-3.358 7.5-7.5s-3.358-7.5-7.5-7.5z"/></g></g></svg>