<svg id="Capa_1" enable-background="new 0 0 512 512" height="512" viewBox="0 0 512 512" width="512" xmlns="http://www.w3.org/2000/svg"><g><g><g><g><g><g><g><circle cx="256" cy="256" fill="#e06a24" r="256"/></g></g></g></g></g></g><path d="m512 256c0-19.323-2.141-38.147-6.198-56.246l-76.777-76.776-283.934 133.022-62.116 138.691 109.319 109.319c20.367 5.216 41.713 7.99 63.706 7.99 141.385 0 256-114.615 256-256z" fill="#c53d0e"/><g><path d="m429.025 329.685h-279.92l-66.13 65.006v-271.713h346.05z" fill="#fff"/></g><g><path d="m256 122.978h173.025v206.707h-173.025z" fill="#e9ecf4"/></g><g><g><path d="m175.95 157.064v42.529h18.518v.163c-.156.817-.782 3.547-2.534 6.148-3.08 4.572-8.317 6.795-16.01 6.795v24.011c31.284 0 41.488-23.014 42.513-35.184v-44.463h-42.487z" fill="#717687"/></g><g><path d="m111.978 157.064v42.529h18.518v.163c-.156.817-.782 3.547-2.534 6.148-3.08 4.572-8.317 6.795-16.01 6.795v24.011c31.284 0 41.488-23.014 42.513-35.184v-44.463h-42.487z" fill="#717687"/></g></g><g><path d="m256 168.183h146.356v30h-146.356z" fill="#575a65"/></g><g><path d="m256 218.968h146.356v30h-146.356z" fill="#575a65"/></g><g><path d="m111.952 269.752h290.404v30h-290.404z" fill="#717687"/></g><g><path d="m256 269.752h146.356v30h-146.356z" fill="#575a65"/></g></g></svg>