<?xml version="1.0" standalone="no"?>
<!DOCTYPE svg PUBLIC "-//W3C//DTD SVG 20010904//EN"
 "http://www.w3.org/TR/2001/REC-SVG-20010904/DTD/svg10.dtd">
<svg version="1.0" xmlns="http://www.w3.org/2000/svg"
 width="1280.000000pt" height="914.000000pt" viewBox="0 0 1280.000000 914.000000"
 preserveAspectRatio="xMidYMid meet">
<metadata>
Created by potrace 1.16, written by Peter Selinger 2001-2019
</metadata>
<g transform="translate(0.000000,914.000000) scale(0.100000,-0.100000)"
fill="#000000" stroke="none">
<path d="M5330 8630 c-543 -16 -931 -44 -1065 -75 -126 -29 -429 -166 -614
-277 -148 -89 -283 -197 -421 -337 -142 -142 -239 -263 -342 -428 -222 -351
-270 -548 -309 -1248 -16 -285 -24 -4678 -10 -5120 19 -557 35 -630 155 -700
81 -47 187 -69 341 -69 146 -1 191 9 238 52 53 47 95 189 116 392 31 285 34
507 38 3094 l4 2639 124 251 c143 292 198 379 315 497 170 171 465 329 707
378 213 43 324 46 1783 46 1426 0 1541 -3 1724 -41 435 -90 874 -449 1055
-863 67 -152 77 -259 91 -961 9 -440 1 -1861 -14 -2727 l-6 -293 -123 -187
c-244 -371 -344 -466 -646 -617 -247 -124 -362 -149 -761 -166 -135 -6 -778
-15 -1430 -20 -652 -6 -1237 -15 -1300 -21 -231 -20 -372 -62 -438 -130 -54
-55 -64 -110 -60 -327 3 -170 5 -191 25 -228 56 -105 175 -147 493 -175 74 -6
535 -13 1127 -16 1781 -9 2270 22 2639 167 218 86 494 273 708 480 258 249
432 503 559 815 81 199 108 328 129 630 19 262 19 3242 0 3505 -16 216 -40
373 -77 485 -208 636 -757 1214 -1382 1455 -208 80 -370 100 -1083 131 -307
13 -1936 20 -2290 9z"/>
<path d="M5830 6974 c-345 -14 -644 -42 -755 -70 -187 -48 -334 -202 -351
-370 -23 -215 150 -427 406 -500 37 -11 126 -18 270 -24 265 -9 305 -22 350
-110 57 -113 61 -198 70 -1440 4 -665 12 -1193 19 -1275 31 -385 81 -533 216
-633 265 -197 542 -147 723 131 101 154 119 275 132 862 5 231 10 798 11 1260
1 462 4 908 8 990 l6 150 100 12 c55 6 183 21 285 33 392 45 493 85 589 233
155 235 79 513 -174 638 -96 47 -278 74 -670 99 -158 11 -1070 21 -1235 14z"/>
</g>
</svg>
